<svg width="107" height="26" viewBox="0 0 107 26" fill="none" xmlns="http://www.w3.org/2000/svg">
<path d="M2.32882 6.74805H8.87471C11.9588 6.74805 14.0988 8.66709 14.0988 11.4528C14.0988 14.2385 11.8959 16.1576 8.87471 16.1576H6.16824V20.1814H2.32882V6.74805ZM8.56 12.6909C9.50412 12.6909 10.1335 12.1338 10.1335 11.4528C10.1335 10.71 9.50412 10.2147 8.56 10.2147H6.16824V12.6909H8.56Z" fill="white"/>
<path d="M15.1688 13.4949C15.1688 9.71867 18.5676 6.56152 22.5959 6.56152C26.6241 6.56152 30.0229 9.71867 30.0229 13.4949C30.0229 17.271 26.6241 20.4282 22.5959 20.4282C18.5676 20.4282 15.1688 17.2091 15.1688 13.4949ZM26.0576 13.4949C26.0576 11.5758 24.4841 10.0282 22.5959 10.0282C20.7076 10.0282 19.1341 11.6377 19.1341 13.4949C19.1341 15.4139 20.7076 17.0234 22.5959 17.0234C24.4841 17.0234 26.0576 15.352 26.0576 13.4949Z" fill="white"/>
<path d="M42.1706 16.7766V20.1814H31.9112V6.74805H35.7506V16.7766H42.1706Z" fill="white"/>
<path d="M47.7094 10.1528V11.6385H54.1924V15.0433H47.7094V16.7766H54.8218V20.1814H43.8071V6.74805H54.8218V10.1528H47.7094Z" fill="white"/>
<path d="M55.7659 18.1377L57.9059 15.5996C59.2906 16.652 60.8012 17.271 62.4376 17.271C63.5076 17.271 64.0741 16.8996 64.0741 16.3425C64.0741 15.7234 63.5706 15.5996 61.6824 15.1663C58.7241 14.4853 56.3953 13.7425 56.3953 10.9568C56.3953 8.29486 58.5353 6.56152 61.8082 6.56152C64.2 6.56152 66.0253 7.18057 67.5359 8.35676L65.5847 11.0187C64.3259 10.0901 62.9412 9.65676 61.6824 9.65676C60.7382 9.65676 60.2976 10.0282 60.2976 10.5234C60.2976 11.2044 60.8012 11.452 62.7523 11.8234C65.9623 12.5044 67.9135 13.3091 67.9135 15.9091C67.9135 18.7568 65.7106 20.4282 62.2488 20.4282C59.8571 20.4282 57.4653 19.6853 55.7659 18.1377Z" fill="white"/>
<path d="M73.0118 10.1528H68.9206V6.74805H80.8794V10.1528H76.8512V20.1814H73.0118V10.1528Z" fill="white"/>
<path d="M101.335 20.1814L98.44 16.1576H97.2441V20.1814H93.4047V6.74805H99.9506C103.035 6.74805 105.175 8.66709 105.175 11.4528C105.175 13.3719 104.168 14.8576 102.468 15.6623L105.741 20.2433H101.335V20.1814ZM97.2441 12.6909H99.6359C100.58 12.6909 101.209 12.1338 101.209 11.4528C101.209 10.71 100.58 10.2147 99.6359 10.2147H97.2441V12.6909Z" fill="white"/>
<path d="M86.2294 0.619141L83.0824 10.0906H72.9488L81.1941 15.9096L78.0471 25.381L86.2294 19.562L94.4747 25.381L91.3277 15.9096L99.51 10.2144L89.3765 10.0906L86.2294 0.619141Z" fill="#FED71F"/>
</svg>
