<svg width="65" height="48" viewBox="0 0 65 48" fill="none" xmlns="http://www.w3.org/2000/svg">
<mask id="mask0_296_183" style="mask-type:alpha" maskUnits="userSpaceOnUse" x="0" y="0" width="65" height="48">
<rect width="65" height="48" fill="#D9D9D9"/>
</mask>
<g mask="url(#mask0_296_183)">
<path d="M59.7583 31.3197C48.0063 34.97 36.2849 38.8223 26.0532 44.9079C23.2143 40.0208 20.3817 35.1394 17.5137 30.2171C27.4454 23.6911 36.0546 15.7273 46.2032 8.40242C51.7414 15.5493 56.1086 23.1346 59.7583 31.3197Z" fill="#8BC543"/>
<path fill-rule="evenodd" clip-rule="evenodd" d="M46.5565 6.10321L47.5322 7.36226C53.1608 14.6258 57.5923 22.3269 61.2881 30.6151L62.0618 32.3503L60.2269 32.9203C48.4627 36.5743 36.9236 40.3763 26.8878 46.3454L25.4378 47.2078L24.6036 45.7718C24.0384 44.7987 23.4735 43.826 22.9085 42.8533C20.6354 38.9393 18.3617 35.0243 16.0652 31.0828L15.2656 29.7103L16.6146 28.8238C21.5087 25.608 26.0904 22.029 30.7496 18.3093C31.4132 17.7794 32.0787 17.2465 32.7468 16.7115C36.7535 13.5029 40.8562 10.2175 45.2422 7.05187L46.5565 6.10321ZM45.845 10.7189C42.0269 13.5303 38.414 16.4233 34.8165 19.3041C34.1459 19.841 33.4759 20.3776 32.8051 20.9131C28.5567 24.3049 24.2892 27.6478 19.7565 30.7177C21.7853 34.2022 23.7983 37.6684 25.8098 41.1318C26.0992 41.6301 26.3885 42.1283 26.6779 42.6265C36.1957 37.225 46.8509 33.6143 57.4429 30.2986C54.2251 23.3575 50.4565 16.8687 45.845 10.7189Z" fill="#198855"/>
<path d="M43.435 24.9004C46.0077 29.2365 44.932 33.9909 41.3301 35.4172C37.7068 36.8484 33.2712 35.3668 31.234 31.9154C29.2194 28.4681 29.9182 23.7391 32.9223 21.3715C35.9237 19.026 40.839 20.5845 43.435 24.9004Z" fill="#006738"/>
<path d="M17.5139 30.2179C18.2771 31.5282 19.0366 32.8319 19.7936 34.1361C21.9517 32.826 22.6194 29.9345 21.2722 27.6699C20.0406 28.5469 18.7905 29.3992 17.5139 30.2179Z" fill="#006738"/>
<path d="M37.3945 25.7435C37.0268 25.2276 36.443 25.2237 35.6538 25.7273C34.8575 26.2323 34.6128 26.7316 34.9083 27.2209C35.091 27.5202 35.3498 27.6594 35.689 27.6343C36.0321 27.6145 36.6461 27.4529 37.546 27.161C38.444 26.8684 39.2111 26.8257 39.8444 27.0393C40.4751 27.2524 41.0019 27.7084 41.4081 28.4024C41.8799 29.2102 41.9302 29.9972 41.5554 30.7371C41.1842 31.4794 40.5877 32.034 39.7835 32.4244C37.8417 33.3618 36.2996 33.1257 35.1274 31.7227C35.6182 31.3886 36.1099 31.0569 36.6012 30.7239C37.2066 31.4958 38.0112 31.6183 39.0298 31.0981C39.9847 30.6111 40.2516 29.9966 39.8171 29.2557C39.625 28.9293 39.368 28.7479 39.0449 28.7156C38.7237 28.6825 38.0836 28.8038 37.1423 29.0947C36.2011 29.3832 35.4402 29.4526 34.857 29.3026C34.2738 29.1507 33.8242 28.8081 33.4948 28.2636C33.147 27.682 33.073 27.0385 33.2769 26.331C33.4792 25.6236 34.0044 24.9748 34.8669 24.398C36.572 23.2466 37.9368 23.359 38.8969 24.7301C38.3955 25.0674 37.8952 25.4057 37.3945 25.7435Z" fill="#8BC543"/>
<path d="M35.7412 24.0598C35.2712 24.3717 34.8008 24.6829 34.3341 24.9948C34.0186 24.4853 33.7003 23.9754 33.3783 23.4642C33.838 23.1415 34.2978 22.8191 34.7575 22.4935C35.0902 23.0194 35.4182 23.5412 35.7412 24.0598Z" fill="#8BC543"/>
<path d="M41.251 33.3416C40.7337 33.577 40.2182 33.8138 39.7042 34.0519C39.4107 33.5378 39.1166 33.0281 38.822 32.5198C39.3293 32.2667 39.8386 32.0161 40.3502 31.7669C40.6502 32.2896 40.9507 32.8137 41.251 33.3416Z" fill="#8BC543"/>
<path d="M25.9191 44.6791C27.2365 43.913 28.5711 43.1749 29.9211 42.4638C28.639 40.253 25.827 39.493 23.6566 40.7826C24.4099 42.0805 25.1641 43.3799 25.9191 44.6791Z" fill="#198855"/>
<path d="M59.5832 30.9314C58.6046 28.756 57.5784 26.6297 56.4941 24.5421C54.019 25.622 53.4525 29.0472 55.0991 32.3883C56.5955 31.902 58.0941 31.4201 59.5832 30.9314Z" fill="#198855"/>
<path d="M46.2041 8.40283C44.9166 9.35165 43.6479 10.3017 42.3962 11.2544C44.6227 14.2651 48.0407 15.5849 50.3805 14.1944C49.0641 12.2281 47.6725 10.2957 46.2041 8.40283Z" fill="#006738"/>
<path d="M28.6479 33.4621C29.0997 34.2344 28.8567 35.2058 28.1113 35.6397C27.3651 36.0715 26.4091 35.8197 25.9715 35.069C25.5333 34.3187 25.7712 33.3449 26.5017 32.8882C27.2343 32.4347 28.1949 32.6914 28.6479 33.4621Z" fill="#006738"/>
<path d="M49.0747 21.8598C49.7072 22.924 49.5356 24.111 48.7229 24.5097C47.9083 24.9043 46.7818 24.4049 46.1793 23.4024C45.5815 22.4013 45.7072 21.223 46.4881 20.7645C47.2717 20.3136 48.4419 20.7963 49.0747 21.8598Z" fill="#006738"/>
<path d="M60.9353 24.3486C49.7966 29.6395 38.7149 35.1227 29.4312 42.5973C25.9158 38.1804 22.4064 33.7675 18.8561 29.3219C27.7775 21.4559 35.182 12.3602 44.2055 3.67529C50.7237 9.933 56.1415 16.7946 60.9353 24.3486Z" fill="#8BC543"/>
<path fill-rule="evenodd" clip-rule="evenodd" d="M44.2272 1.35256L45.3755 2.45495C52.0003 8.81507 57.4986 15.7818 62.3526 23.4306L63.3689 25.0321L61.6297 25.8582C50.4792 31.1546 39.5712 36.562 30.4652 43.8936L29.1494 44.953L28.1162 43.6548C27.5654 42.9628 27.0149 42.2709 26.4643 41.579C23.5001 37.8542 20.536 34.1295 17.5428 30.3815L16.5525 29.1416L17.7646 28.0729C22.1608 24.1967 26.1955 20.0068 30.287 15.667C30.8683 15.0503 31.451 14.4305 32.036 13.8081C35.5546 10.065 39.1574 6.23211 43.0588 2.47716L44.2272 1.35256ZM44.1817 6.01C40.7931 9.334 37.6202 12.7093 34.4607 16.0703C33.8735 16.6949 33.2869 17.3189 32.6994 17.9421C28.9687 21.8992 25.2121 25.811 21.1536 29.4913C23.816 32.8274 26.4576 36.147 29.0978 39.4646C29.3069 39.7274 29.516 39.9901 29.7251 40.2529C38.3981 33.556 48.4562 28.464 58.4916 23.6704C54.3046 17.2816 49.6373 11.4169 44.1817 6.01Z" fill="#198855"/>
<path d="M43.8168 20.3547C46.9928 24.2653 46.602 29.1117 43.2332 31.0353C39.8428 32.9697 35.2265 32.1421 32.7141 29.0285C30.2213 25.9148 30.2377 21.1459 32.8799 18.3781C35.522 15.6332 40.6229 16.4665 43.8168 20.3547Z" fill="#006738"/>
<path d="M18.8554 29.3194C19.7991 30.5015 20.7392 31.6802 21.6783 32.8583C23.6306 31.2568 23.8797 28.3067 22.2201 26.2648C21.1241 27.3061 20.0059 28.3272 18.8554 29.3194Z" fill="#006738"/>
<path d="M37.9464 22.0564C37.5075 21.6011 36.9265 21.6806 36.2144 22.2904C35.4966 22.9041 35.3267 23.4308 35.6902 23.8725C35.9136 24.1406 36.1904 24.2397 36.5247 24.1675C36.8617 24.1 37.4468 23.8512 38.2974 23.4327C39.1472 23.0168 39.9029 22.8651 40.5617 22.9851C41.2188 23.1053 41.807 23.4804 42.307 24.1051C42.8926 24.8342 43.0539 25.6056 42.7889 26.389C42.5268 27.1751 42.0142 27.8081 41.2726 28.3085C39.4787 29.5127 37.9154 29.4996 36.5509 28.2834C36.9898 27.8844 37.4283 27.4859 37.8694 27.0868C38.5816 27.7626 39.3981 27.7682 40.3343 27.1076C41.2109 26.4908 41.3893 25.8459 40.8533 25.1774C40.6148 24.8822 40.3334 24.739 40.0091 24.754C39.6846 24.7676 39.0665 24.98 38.1755 25.4006C37.2824 25.8211 36.537 25.9991 35.9361 25.9335C35.3356 25.868 34.8412 25.5939 34.4366 25.1032C34.0075 24.5796 33.8421 23.9552 33.9435 23.2281C34.0431 22.5003 34.4724 21.7861 35.246 21.0918C36.7715 19.7108 38.1424 19.6253 39.2922 20.841C38.8418 21.2468 38.3923 21.6512 37.9464 22.0564Z" fill="#8BC543"/>
<path d="M36.0611 20.6269C35.6387 21.0026 35.2186 21.3769 34.798 21.7505C34.4142 21.2943 34.0254 20.8373 33.6327 20.3785C34.0408 19.9936 34.4513 19.609 34.8622 19.2236C35.2653 19.6921 35.6653 20.1603 36.0611 20.6269Z" fill="#8BC543"/>
<path d="M42.857 29.0016C42.377 29.3078 41.8993 29.6147 41.4238 29.9249C41.0595 29.4609 40.6938 28.9987 40.3295 28.5377C40.797 28.2161 41.2658 27.8956 41.738 27.5775C42.1108 28.0497 42.4843 28.5232 42.857 29.0016Z" fill="#8BC543"/>
<path d="M29.2655 42.3886C30.4648 41.4447 31.6827 40.5239 32.9209 39.6289C31.3324 37.6303 28.4332 37.2825 26.4641 38.8676C27.3978 40.0407 28.3335 41.2153 29.2655 42.3886Z" fill="#198855"/>
<path d="M60.7064 23.9921C59.4238 21.9859 58.1015 20.0338 56.7265 18.129C54.4232 19.5508 54.3526 23.012 56.466 26.073C57.8816 25.3781 59.2988 24.6873 60.7064 23.9921Z" fill="#198855"/>
<path d="M44.2054 3.67516C43.0612 4.79483 41.9388 5.91453 40.8338 7.03442C43.4747 9.68746 47.0536 10.4996 49.1775 8.79243C47.5899 7.04054 45.9333 5.33178 44.2054 3.67516Z" fill="#198855"/>
<path d="M30.3681 30.9257C30.9273 31.6233 30.8256 32.6174 30.1467 33.1516C29.4686 33.6843 28.4849 33.5744 27.9416 32.8948C27.3999 32.2187 27.4967 31.2229 28.1558 30.6668C28.8176 30.1151 29.8073 30.2306 30.3681 30.9257Z" fill="#006738"/>
<path d="M48.9784 16.5428C49.7596 17.503 49.7586 18.6997 49.0088 19.2084C48.2591 19.7162 47.0672 19.3848 46.3269 18.4797C45.59 17.5779 45.5473 16.3964 46.2557 15.8333C46.9686 15.2755 48.1983 15.5844 48.9784 16.5428Z" fill="#006738"/>
<path d="M30.9324 17.7162C31.6034 24.5234 26.63 30.5868 19.8221 31.2589C13.0149 31.9307 6.95116 26.9563 6.27972 20.1493C5.60807 13.3418 10.582 7.27821 17.3895 6.60657C24.1968 5.93442 30.2601 10.9084 30.9324 17.7162Z" fill="#E8AF2E"/>
<path d="M28.7026 17.9345C29.2531 23.5126 25.1778 28.4802 19.6008 29.03C14.0236 29.5805 9.05546 25.5053 8.50546 19.9279C7.95424 14.3504 12.0302 9.38193 17.6068 8.83223C23.1847 8.28177 28.1528 12.3569 28.7026 17.9345Z" fill="#F9CA35"/>
<path d="M20.5285 15.9447C20.3847 15.1639 19.621 14.8395 18.2309 14.9731C16.8373 15.1053 16.1744 15.5448 16.245 16.2869C16.2896 16.7418 16.5432 17.0512 17.0127 17.2122C17.4814 17.3756 18.4076 17.5226 19.7891 17.6524C21.1724 17.7833 22.2095 18.1223 22.9031 18.6728C23.5968 19.2212 23.9925 19.985 24.0839 20.9619C24.1935 22.1019 23.7676 23.0316 22.807 23.7497C21.8479 24.4674 20.7093 24.8886 19.3935 25.0144C16.2154 25.316 14.2876 24.2726 13.6117 21.8787L16.2221 21.4153C16.5381 22.6748 17.5405 23.224 19.2251 23.0634C20.804 22.9131 21.5424 22.3026 21.4407 21.2323C21.394 20.7581 21.1705 20.4227 20.764 20.2282C20.3596 20.0316 19.4351 19.8638 17.9943 19.7226C16.555 19.5797 15.4912 19.2557 14.8088 18.7486C14.1274 18.2396 13.7454 17.5633 13.6647 16.7188C13.5788 15.8101 13.9102 15.0026 14.6566 14.2975C15.4053 13.5916 16.55 13.1659 18.0913 13.0194C21.1448 12.7284 22.8421 13.5876 23.182 15.596L20.5285 15.9447Z" fill="#C38728"/>
<path d="M16.76 11.095L16.9763 13.375L19.4825 13.1372L19.2661 10.8572L16.76 11.095Z" fill="#C38728"/>
<path d="M18.0578 24.6946L18.2739 26.9746L20.7807 26.737L20.5645 24.4569L18.0578 24.6946Z" fill="#C38728"/>
<path d="M6.5868 19.6842C7.31891 17.8839 7.63646 14.8213 7.28444 13.9867C6.93926 13.1684 4.51794 11.2437 2.72 10.5114C4.51814 11.2432 7.45199 11.6146 8.41388 11.2093C9.4232 10.7836 11.1582 8.4427 11.8905 6.64184C11.14 8.48729 10.7826 11.3609 11.2463 12.4621C11.7261 13.5997 14.0048 15.0997 15.7586 15.8129C13.9587 15.081 11.0134 14.7148 10.0636 15.1163C9.09908 15.5223 7.31891 17.8839 6.5868 19.6842Z" fill="white"/>
<path d="M1.82024 18.9211C2.08085 18.2802 2.19455 17.1907 2.06909 16.8933C1.947 16.6019 1.08516 15.9168 0.44379 15.656C1.08466 15.9166 2.12826 16.0484 2.47131 15.9041C2.82957 15.7526 3.44727 14.92 3.70808 14.2786C3.44115 14.935 3.31456 15.9586 3.47895 16.3513C3.64881 16.7549 4.46138 17.2897 5.08572 17.5436C4.44485 17.283 3.39502 17.1522 3.0582 17.2955C2.71515 17.4398 2.08085 18.2802 1.82024 18.9211Z" fill="white"/>
<path d="M8.31804 27.2864C8.67951 26.3975 8.83752 24.8846 8.66239 24.4723C8.49273 24.0682 7.29602 23.1167 6.40812 22.7556C7.29552 23.1165 8.74523 23.3008 9.22028 23.1004C9.71839 22.8907 10.5761 21.7335 10.9378 20.8441C10.5669 21.7561 10.3901 23.1761 10.6191 23.72C10.8562 24.2813 11.9815 25.0221 12.8499 25.3752C11.9595 25.0131 10.5046 24.8314 10.0348 25.0304C9.55926 25.2306 8.67951 26.3975 8.31804 27.2864Z" fill="white"/>
</g>
</svg>
